# Blender 5.0.1
# www.blender.org
o StairsSlot
v 1.692580 1.400000 -0.202765
v -1.692580 1.400000 -0.202765
v 1.692580 -1.400000 -0.202765
v -1.692580 -1.400000 -0.202765
v 1.569280 1.569280 0.120000
v -1.569280 1.569280 0.120000
v 1.569280 -1.569280 0.120000
v -1.569280 -1.569280 0.120000
v 1.647580 1.647580 0.095000
v -1.647580 1.647580 0.095000
v 1.647580 -1.647580 0.095000
v -1.647580 -1.647580 0.095000
v -1.604280 1.604280 0.120000
v 1.604280 1.604280 0.120000
v -1.604280 -1.604280 0.120000
v 1.604280 -1.604280 0.120000
v -1.506715 -1.506715 0.011631
v 1.506715 -1.506715 0.011631
v -1.506715 1.506715 0.011631
v 1.506715 1.506715 0.011631
v -1.647580 1.647580 0.045000
v -1.647580 -1.647580 0.045000
v 1.647580 1.647580 0.045000
v 1.647580 -1.647580 0.045000
v -1.692580 1.602610 0.000000
v 1.692580 1.602610 0.000000
v -1.692580 -1.602610 0.000000
v 1.692580 -1.602610 0.000000
v 1.692580 1.602610 0.045000
v 1.692580 -1.602610 0.045000
v -1.692580 1.602610 0.045000
v -1.692580 -1.602610 0.045000
v 2.840919 -0.104189 0.000000
v 2.813850 -0.205212 0.000000
v 2.769650 -0.300000 0.000000
v 2.840919 0.104189 0.000000
v 2.813850 0.205212 0.000000
v 2.769650 0.300000 0.000000
v 2.709750 0.385673 0.000000
v 2.709750 -0.385673 0.000000
v -2.840919 -0.104189 0.000000
v -2.813850 -0.205212 0.000000
v -2.769650 -0.300000 0.000000
v -2.840919 0.104189 0.000000
v -2.813850 0.205212 0.000000
v -2.769650 0.300000 0.000000
v 1.867381 1.399920 0.000000
v -2.709750 0.385673 0.000000
v 1.867381 1.399920 0.045000
v 2.709750 0.385673 0.045000
v 1.867381 -1.399920 0.000000
v -2.709750 -0.385673 0.000000
v 2.840448 0.104189 0.045000
v 2.813850 0.205212 0.045000
v 2.769650 0.300000 0.045000
v 1.867381 -1.399920 0.045000
v 2.709750 -0.385673 0.045000
v 2.840448 -0.104189 0.045000
v 2.813850 -0.205212 0.045000
v 2.769650 -0.300000 0.045000
v -1.867381 1.399920 0.000000
v -1.867381 1.399920 0.045000
v -2.709750 0.385673 0.045000
v -1.867381 -1.399920 0.000000
v -2.840448 0.104189 0.045000
v -2.813850 0.205212 0.045000
v -2.769650 0.300000 0.045000
v -1.867381 -1.399920 0.045000
v -2.709750 -0.385673 0.045000
v -2.840448 -0.104189 0.045000
v -2.813850 -0.205212 0.045000
v -2.769650 -0.300000 0.045000
v -2.168698 0.000000 0.045000
v 2.168698 0.000000 0.045000
v -2.168698 0.000000 0.000000
v 2.168698 0.000000 0.000000
v 2.852170 0.000000 0.045000
v 2.853461 0.000000 0.000000
v -2.852170 0.000000 0.045000
v -2.853461 0.000000 0.000000
vn -0.0000 -0.0000 -1.0000
vn -0.0000 -0.0000 1.0000
vn 0.9931 -0.1156 0.0194
vn -0.7433 -0.0000 0.6690
vn 0.6342 0.5469 -0.5465
vn -0.0000 0.5000 0.8660
vn 0.7433 -0.0000 0.6690
vn 0.8196 -0.5730 -0.0000
vn 0.8196 0.5730 -0.0000
vn -0.0000 -0.5000 0.8660
vn -0.0000 -0.7074 -0.7068
vn -0.0000 0.7073 -0.7069
vn -0.9665 -0.2567 0.0051
vn 0.7693 0.6389 -0.0000
vn -0.9931 -0.1156 0.0194
vn -0.7573 -0.6531 -0.0000
vn -0.7069 -0.7073 -0.0000
vn -0.9931 0.1156 0.0194
vn -0.6342 -0.5469 -0.5465
vn -0.6342 0.5469 -0.5465
vn 0.7693 -0.6389 -0.0000
vn -0.7693 -0.6389 -0.0000
vn 0.7573 0.6531 -0.0000
vn 0.5000 -0.0000 0.8660
vn -0.0000 -1.0000 -0.0000
vn -0.7069 0.7073 -0.0000
vn -0.9063 -0.4226 -0.0000
vn 0.9665 -0.2567 0.0051
vn -0.0000 0.7074 -0.7068
vn -0.7574 -0.0000 -0.6529
vn 0.7574 -0.0000 -0.6529
vn -0.7573 0.6531 -0.0000
vn 0.7069 -0.7073 -0.0000
vn 0.6342 -0.5469 -0.5465
vn 0.8660 -0.0000 0.5000
vn 0.9665 0.2567 0.0051
vn -0.9665 0.2567 0.0051
vn -0.8660 -0.0000 0.5000
vn -0.0000 1.0000 -0.0000
vn 0.9931 0.1156 0.0194
vn -0.8196 -0.5730 -0.0000
vn -0.9063 0.4226 -0.0000
vn -0.0000 -0.8660 0.5000
vn 0.9063 -0.4226 -0.0000
vn -0.7693 0.6389 -0.0000
vn -0.0000 0.8660 0.5000
vn 0.7573 -0.6531 -0.0000
vn -0.8196 0.5730 -0.0000
vn -0.0000 -0.7073 -0.7069
vn 0.9063 0.4226 -0.0000
vn 0.7069 0.7073 -0.0000
vn -0.5000 -0.0000 0.8660
vt 0.000000 0.000000
vt 0.954545 0.954545
vt 1.000000 1.000000
vt 0.977273 0.977273
vt 0.954545 0.954545
s 0
f 38/1/1 37/1/1 76/1/1
f 59/1/2 74/1/2 60/1/2
f 64/1/1 52/1/1 75/1/1
f 63/1/2 73/1/2 62/1/2
f 73/1/2 65/1/2 79/1/2
f 56/1/2 49/1/2 29/1/2 30/1/2
f 53/1/2 54/1/2 74/1/2
f 37/1/1 36/1/1 76/1/1
f 33/1/3 78/1/3 77/1/3 58/1/3
f 74/1/2 58/1/2 77/1/2
f 67/1/2 73/1/2 63/1/2
f 10/1/4 31/1/4 32/1/4 12/1/4
f 47/1/5 1/1/5 26/1/5
f 1/2/1 3/2/1 4/2/1 2/2/1
f 9/3/6 10/3/6 13/4/6 14/4/6
f 14/4/2 13/4/2 6/2/2 5/2/2
f 43/1/1 42/1/1 75/1/1
f 33/1/1 76/1/1 78/1/1
f 47/1/1 39/1/1 76/1/1
f 39/1/1 38/1/1 76/1/1
f 55/1/2 50/1/2 74/1/2
f 36/1/1 78/1/1 76/1/1
f 50/1/2 49/1/2 74/1/2
f 16/4/2 7/2/2 8/2/2 15/4/2
f 44/1/1 75/1/1 80/1/1
f 48/1/1 75/1/1 46/1/1
f 11/1/7 30/1/7 29/1/7 9/1/7
f 61/1/1 75/1/1 48/1/1
f 60/1/2 74/1/2 57/1/2
f 60/1/8 57/1/8 40/1/8 35/1/8
f 55/1/9 38/1/9 39/1/9 50/1/9
f 11/3/10 16/4/10 15/4/10 12/3/10
f 61/1/1 64/1/1 75/1/1
f 68/1/2 32/1/2 31/1/2 62/1/2
f 28/1/11 27/1/11 4/1/11 3/1/11
f 54/1/2 55/1/2 74/1/2
f 51/1/1 76/1/1 40/1/1
f 25/1/12 21/1/12 23/1/12 26/1/12
f 65/1/2 73/1/2 66/1/2
f 57/1/2 74/1/2 56/1/2
f 70/1/13 41/1/13 42/1/13 71/1/13
f 47/1/14 49/1/14 50/1/14 39/1/14
f 34/1/1 76/1/1 33/1/1
f 68/1/2 62/1/2 73/1/2
f 41/1/15 70/1/15 79/1/15 80/1/15
f 45/1/1 75/1/1 44/1/1
f 46/1/1 75/1/1 45/1/1
f 40/1/1 76/1/1 35/1/1
f 71/1/2 72/1/2 73/1/2
f 58/1/2 74/1/2 59/1/2
f 27/1/16 32/1/16 68/1/16 64/1/16
f 32/1/17 27/1/17 22/1/17 12/1/17
f 69/1/2 68/1/2 73/1/2
f 44/1/18 80/1/18 79/1/18 65/1/18
f 64/1/19 4/1/19 27/1/19
f 70/1/2 71/1/2 73/1/2
f 61/1/20 25/1/20 2/1/20
f 42/1/1 41/1/1 75/1/1
f 51/1/21 40/1/21 57/1/21 56/1/21
f 18/5/2 20/5/2 19/5/2 17/5/2
f 64/1/22 68/1/22 69/1/22 52/1/22
f 26/1/23 29/1/23 49/1/23 47/1/23
f 16/4/24 11/3/24 9/3/24 14/4/24
f 24/1/25 11/1/25 12/1/25 22/1/25
f 52/1/1 43/1/1 75/1/1
f 41/1/1 80/1/1 75/1/1
f 31/1/26 10/1/26 21/1/26 25/1/26
f 71/1/27 42/1/27 43/1/27 72/1/27
f 66/1/2 73/1/2 67/1/2
f 74/1/2 77/1/2 53/1/2
f 58/1/28 59/1/28 34/1/28 33/1/28
f 25/1/29 26/1/29 1/1/29 2/1/29
f 61/1/30 2/1/30 4/1/30 64/1/30
f 5/2/2 7/2/2 16/4/2 14/4/2
f 47/1/31 51/1/31 3/1/31 1/1/31
f 72/1/2 69/1/2 73/1/2
f 73/1/2 79/1/2 70/1/2
f 25/1/32 61/1/32 62/1/32 31/1/32
f 30/1/33 11/1/33 24/1/33 28/1/33
f 51/1/34 28/1/34 3/1/34
f 35/1/1 76/1/1 34/1/1
f 19/5/35 6/2/35 8/2/35 17/5/35
f 53/1/36 36/1/36 37/1/36 54/1/36
f 65/1/37 66/1/37 45/1/37 44/1/37
f 20/5/38 18/5/38 7/2/38 5/2/38
f 23/1/39 21/1/39 10/1/39 9/1/39
f 36/1/40 53/1/40 77/1/40 78/1/40
f 72/1/41 43/1/41 52/1/41 69/1/41
f 56/1/2 74/1/2 49/1/2
f 66/1/42 67/1/42 46/1/42 45/1/42
f 5/2/43 6/2/43 19/5/43 20/5/43
f 59/1/44 60/1/44 35/1/44 34/1/44
f 61/1/45 48/1/45 63/1/45 62/1/45
f 7/2/46 18/5/46 17/5/46 8/2/46
f 28/1/47 51/1/47 56/1/47 30/1/47
f 76/1/1 51/1/1 47/1/1
f 67/1/48 63/1/48 48/1/48 46/1/48
f 27/1/49 28/1/49 24/1/49 22/1/49
f 54/1/50 37/1/50 38/1/50 55/1/50
f 29/1/51 26/1/51 23/1/51 9/1/51
f 13/4/52 10/3/52 12/3/52 15/4/52
f 6/2/2 13/4/2 15/4/2 8/2/2
