# Blender 5.0.1
# www.blender.org
o StairSlotStateIndicator
v -1.585000 0.100000 1.585000
v -2.000000 0.600000 2.000000
v -1.585000 0.100000 -1.585000
v -2.000000 0.600000 -2.000000
v 1.585000 0.100000 1.585000
v 2.000000 0.600000 2.000000
v 1.585000 0.100000 -1.585000
v 2.000000 0.600000 -2.000000
v -1.585000 0.100000 1.585000
v -2.000000 0.600000 2.000000
v -1.585000 0.100000 -1.585000
v -2.000000 0.600000 -2.000000
v 1.585000 0.100000 1.585000
v 2.000000 0.600000 2.000000
v 1.585000 0.100000 -1.585000
v 2.000000 0.600000 -2.000000
vn -0.7695 -0.6387 -0.0000
vn -0.0000 -0.6387 -0.7695
vn 0.7695 -0.6387 -0.0000
vn -0.0000 -0.6387 0.7695
vn 0.7695 0.6387 -0.0000
vn -0.0000 0.6387 0.7695
vn -0.7695 0.6387 -0.0000
vn -0.0000 0.6387 -0.7695
vt 0.000000 1.000000
vt 0.625000 0.625000
vt 0.375000 0.625000
vt 1.000000 1.000000
vt 0.625000 0.375000
vt 1.000000 0.000000
vt 0.375000 0.375000
vt 0.000000 0.000000
vt 0.000000 1.000000
vt 0.000000 0.000000
s 0
f 2/1/1 3/2/1 1/3/1
f 4/4/2 7/5/2 3/2/2
f 8/6/3 5/7/3 7/5/3
f 6/8/4 1/3/4 5/7/4
f 11/2/5 10/9/5 9/3/5
f 15/5/6 12/4/6 11/2/6
f 13/7/7 16/6/7 15/5/7
f 9/3/8 14/10/8 13/7/8
f 2/1/1 4/4/1 3/2/1
f 4/4/2 8/6/2 7/5/2
f 8/6/3 6/8/3 5/7/3
f 6/8/4 2/1/4 1/3/4
f 11/2/5 12/4/5 10/9/5
f 15/5/6 16/6/6 12/4/6
f 13/7/7 14/10/7 16/6/7
f 9/3/8 10/9/8 14/10/8
