# Blender 5.0.1
# www.blender.org
o StairsSlotPlatformAttachmentIndicator
v -0.000000 1.515000 -1.100000
v 0.069459 1.515000 -1.093923
v 0.136808 1.515000 -1.075877
v 0.200000 1.515000 -1.046410
v 0.257115 1.515000 -1.006418
v 0.306418 1.515000 -0.957115
v 0.346410 1.515000 -0.900000
v 0.375877 1.515000 -0.836808
v 0.393923 1.515000 -0.769459
v 0.400000 1.515000 -0.700000
v 0.393923 1.515000 -0.630541
v 0.375877 1.515000 -0.563192
v 0.346410 1.515000 -0.500000
v 0.306418 1.515000 -0.442885
v 0.257115 1.515000 -0.393582
v 0.200000 1.515000 -0.353590
v 0.136808 1.515000 -0.324123
v 0.069459 1.515000 -0.306077
v 0.069459 1.652186 0.043482
v -0.069459 1.515000 -0.306077
v -0.136808 1.515000 -0.324123
v -0.200000 1.515000 -0.353590
v -0.257115 1.515000 -0.393582
v -0.306418 1.515000 -0.442885
v -0.346410 1.515000 -0.500000
v -0.375877 1.515000 -0.563192
v -0.393923 1.515000 -0.630541
v -0.400001 1.515000 -0.700000
v -0.393923 1.515000 -0.769459
v -0.375877 1.515000 -0.836808
v -0.346410 1.515000 -0.900000
v -0.306418 1.515000 -0.957115
v -0.257115 1.515000 -1.006418
v -0.200000 1.515000 -1.046410
v -0.136808 1.515000 -1.075877
v -0.069459 1.515000 -1.093923
v -0.000000 1.535000 -1.100000
v 0.069459 1.535000 -1.093923
v 0.136808 1.535000 -1.075877
v 0.200000 1.535000 -1.046410
v 0.257115 1.535000 -1.006418
v 0.306418 1.535000 -0.957115
v 0.346410 1.535000 -0.900000
v 0.375877 1.535000 -0.836808
v 0.393923 1.535000 -0.769459
v 0.400000 1.535000 -0.700000
v 0.393923 1.535000 -0.630541
v 0.375877 1.535000 -0.563192
v 0.346410 1.535000 -0.500000
v 0.306418 1.535000 -0.442885
v 0.257115 1.535000 -0.393582
v 0.200000 1.535000 -0.353590
v 0.136808 1.535000 -0.324123
v 0.069459 1.535000 -0.306077
v -0.069459 1.535000 -0.306077
v 0.069459 1.666119 0.038556
v -0.136808 1.535000 -0.324123
v -0.200000 1.535000 -0.353590
v -0.257115 1.535000 -0.393582
v -0.306418 1.535000 -0.442885
v -0.346410 1.535000 -0.500000
v -0.375877 1.535000 -0.563192
v -0.393923 1.535000 -0.630541
v -0.400001 1.535000 -0.700000
v -0.393923 1.535000 -0.769459
v -0.375877 1.535000 -0.836808
v -0.346410 1.535000 -0.900000
v -0.306418 1.535000 -0.957115
v -0.257115 1.535000 -1.006418
v -0.200000 1.535000 -1.046410
v -0.136808 1.535000 -1.075877
v -0.069459 1.535000 -1.093923
v -0.000000 1.515000 -0.700000
v -0.000000 1.535001 -0.700000
v 0.069459 1.515000 -0.094705
v -0.069459 1.652186 0.043482
v -0.069459 1.515000 -0.094705
v -0.069459 1.535000 -0.094705
v 0.069459 1.535000 -0.094705
v -0.069459 1.666119 0.038556
v 0.069459 1.652233 0.096675
v 0.069459 1.666073 0.101857
v -0.069459 1.652233 0.096675
v -0.069459 1.666073 0.101857
v 0.069459 1.628430 0.111830
v 0.069459 1.634642 0.122590
v -0.069459 1.628430 0.111830
v -0.069459 1.634642 0.122590
v -0.000000 -1.515000 -1.100000
v 0.069459 -1.515000 -1.093923
v 0.136808 -1.515000 -1.075877
v 0.200000 -1.515000 -1.046410
v 0.257115 -1.515000 -1.006418
v 0.306418 -1.515000 -0.957115
v 0.346410 -1.515000 -0.900000
v 0.375877 -1.515000 -0.836808
v 0.393923 -1.515000 -0.769459
v 0.400000 -1.515000 -0.700000
v 0.393923 -1.515000 -0.630541
v 0.375877 -1.515000 -0.563192
v 0.346410 -1.515000 -0.500000
v 0.306418 -1.515000 -0.442885
v 0.257115 -1.515000 -0.393582
v 0.200000 -1.515000 -0.353590
v 0.136808 -1.515000 -0.324123
v 0.069459 -1.515000 -0.306077
v 0.069459 -1.652186 0.043482
v -0.069459 -1.515000 -0.306077
v -0.136808 -1.515000 -0.324123
v -0.200000 -1.515000 -0.353590
v -0.257115 -1.515000 -0.393582
v -0.306418 -1.515000 -0.442885
v -0.346410 -1.515000 -0.500000
v -0.375877 -1.515000 -0.563192
v -0.393923 -1.515000 -0.630541
v -0.400001 -1.515000 -0.700000
v -0.393923 -1.515000 -0.769459
v -0.375877 -1.515000 -0.836808
v -0.346410 -1.515000 -0.900000
v -0.306418 -1.515000 -0.957115
v -0.257115 -1.515000 -1.006418
v -0.200000 -1.515000 -1.046410
v -0.136808 -1.515000 -1.075877
v -0.069459 -1.515000 -1.093923
v -0.000000 -1.535000 -1.100000
v 0.069459 -1.535000 -1.093923
v 0.136808 -1.535000 -1.075877
v 0.200000 -1.535000 -1.046410
v 0.257115 -1.535000 -1.006418
v 0.306418 -1.535000 -0.957115
v 0.346410 -1.535000 -0.900000
v 0.375877 -1.535000 -0.836808
v 0.393923 -1.535000 -0.769459
v 0.400000 -1.535000 -0.700000
v 0.393923 -1.535000 -0.630541
v 0.375877 -1.535000 -0.563192
v 0.346410 -1.535000 -0.500000
v 0.306418 -1.535000 -0.442885
v 0.257115 -1.535000 -0.393582
v 0.200000 -1.535000 -0.353590
v 0.136808 -1.535000 -0.324123
v 0.069459 -1.535000 -0.306077
v -0.069459 -1.535000 -0.306077
v 0.069459 -1.666119 0.038556
v -0.136808 -1.535000 -0.324123
v -0.200000 -1.535000 -0.353590
v -0.257115 -1.535000 -0.393582
v -0.306418 -1.535000 -0.442885
v -0.346410 -1.535000 -0.500000
v -0.375877 -1.535000 -0.563192
v -0.393923 -1.535000 -0.630541
v -0.400001 -1.535000 -0.700000
v -0.393923 -1.535000 -0.769459
v -0.375877 -1.535000 -0.836808
v -0.346410 -1.535000 -0.900000
v -0.306418 -1.535000 -0.957115
v -0.257115 -1.535000 -1.006418
v -0.200000 -1.535000 -1.046410
v -0.136808 -1.535000 -1.075877
v -0.069459 -1.535000 -1.093923
v -0.000000 -1.515000 -0.700000
v -0.000000 -1.535001 -0.700000
v 0.069459 -1.515000 -0.094705
v -0.069459 -1.652186 0.043482
v -0.069459 -1.515000 -0.094705
v -0.069459 -1.535000 -0.094705
v 0.069459 -1.535000 -0.094705
v -0.069459 -1.666119 0.038556
v 0.069459 -1.652233 0.096675
v 0.069459 -1.666073 0.101857
v -0.069459 -1.652233 0.096675
v -0.069459 -1.666073 0.101857
v 0.069459 -1.628430 0.111830
v 0.069459 -1.634642 0.122590
v -0.069459 -1.628430 0.111830
v -0.069459 -1.634642 0.122590
vn -0.0000 -1.0000 -0.0000
vn -0.0000 1.0000 -0.0000
vn 0.9063 -0.0000 0.4226
vn 0.0872 -0.0000 -0.9962
vn -0.2588 -0.0000 -0.9659
vn -0.4226 -0.0000 -0.9063
vn -0.0000 -0.8660 0.5000
vn 0.5736 -0.0000 -0.8192
vn -1.0000 -0.0000 -0.0000
vn -0.0872 -0.0000 -0.9962
vn -0.9659 -0.0000 0.2588
vn -0.9063 -0.0000 -0.4226
vn -0.8192 -0.0000 -0.5736
vn 0.5736 -0.0000 0.8192
vn -0.0000 0.7097 0.7045
vn -0.7071 -0.0000 -0.7071
vn -0.5736 -0.0000 0.8192
vn 0.2588 -0.0000 0.9659
vn -0.0000 -0.5371 -0.8435
vn 0.9962 -0.0000 0.0872
vn -0.9962 -0.0000 -0.0872
vn -0.4226 -0.0000 0.9063
vn 0.7071 -0.0000 0.7071
vn 0.2588 -0.0000 -0.9659
vn 0.7071 -0.0000 -0.7071
vn -0.5736 -0.0000 -0.8192
vn 0.4226 -0.0000 0.9063
vn -0.0000 0.5506 0.8347
vn 0.8192 -0.0000 -0.5736
vn 0.9659 -0.0000 0.2588
vn 0.9962 -0.0000 -0.0872
vn -0.7071 -0.0000 0.7071
vn 1.0000 -0.0000 -0.0000
vn -0.2588 -0.0000 0.9659
vn 0.9659 -0.0000 -0.2588
vn 0.9063 -0.0000 -0.4226
vn -0.0000 -1.0000 0.0009
vn -0.9659 -0.0000 -0.2588
vn -0.9962 -0.0000 0.0872
vn -0.0000 1.0000 0.0009
vn -0.0000 0.7128 -0.7014
vn 0.8192 -0.0000 0.5736
vn 0.4226 -0.0000 -0.9063
vn -0.8192 -0.0000 0.5736
vn -0.9063 -0.0000 0.4226
vn -0.0000 1.0000 0.0007
vn -0.0000 -0.7097 0.7045
vn -0.0000 -1.0000 0.0007
vn -0.0000 0.8660 0.5000
vn -0.0000 0.5371 -0.8435
vn -0.0000 -0.7128 -0.7014
vn -0.0000 -0.5506 0.8347
vt 0.500000 1.000000
vt 0.413176 0.992404
vt 0.499969 0.500352
vt 0.586824 0.992404
vt 0.500000 0.500000
vt 0.328990 0.969846
vt 0.250000 0.933013
vt 0.178606 0.883022
vt 0.116978 0.821394
vt 0.066987 0.750000
vt 0.030154 0.671010
vt 0.007596 0.586824
vt 0.000000 0.500000
vt 0.007596 0.413176
vt 0.030154 0.328990
vt 0.066987 0.250000
vt 0.116978 0.178606
vt 0.178606 0.116978
vt 0.250000 0.066987
vt 0.328990 0.030154
vt 0.413176 0.007596
vt 0.500000 0.000000
vt 0.586824 0.007596
vt 0.671010 0.030154
vt 0.750000 0.066987
vt 0.821394 0.116978
vt 0.883022 0.178606
vt 0.933013 0.250000
vt 0.969846 0.328990
vt 0.992404 0.413176
vt 0.998891 0.512678
vt 0.992404 0.586824
vt 0.969846 0.671010
vt 0.933013 0.750000
vt 0.883022 0.821394
vt 0.821394 0.883022
vt 0.750000 0.933013
vt 0.671010 0.969846
vt 1.000000 0.500000
vt 0.998908 0.487515
s 0
f 1/1/1 2/2/1 73/3/1
f 37/1/2 72/4/2 74/5/2
f 2/2/1 3/6/1 73/3/1
f 3/6/1 4/7/1 73/3/1
f 4/7/1 5/8/1 73/3/1
f 5/8/1 6/9/1 73/3/1
f 6/9/1 7/10/1 73/3/1
f 7/10/1 8/11/1 73/3/1
f 8/11/1 9/12/1 73/3/1
f 9/12/1 10/13/1 73/3/1
f 10/13/1 11/14/1 73/3/1
f 11/14/1 12/15/1 73/3/1
f 12/15/1 13/16/1 73/3/1
f 13/16/1 14/17/1 73/3/1
f 14/17/1 15/18/1 73/3/1
f 15/18/1 16/19/1 73/3/1
f 16/19/1 17/20/1 73/3/1
f 17/20/1 18/21/1 73/3/1
f 18/22/1 20/23/1 73/3/1
f 20/23/1 21/24/1 73/3/1
f 21/24/1 22/25/1 73/3/1
f 22/25/1 23/26/1 73/3/1
f 23/26/1 24/27/1 73/3/1
f 24/27/1 25/28/1 73/3/1
f 25/28/1 26/29/1 73/3/1
f 26/29/1 27/30/1 73/3/1
f 27/30/1 28/31/1 73/3/1
f 28/31/1 29/32/1 73/3/1
f 29/32/1 30/33/1 73/3/1
f 30/33/1 31/34/1 73/3/1
f 31/34/1 32/35/1 73/3/1
f 32/35/1 33/36/1 73/3/1
f 33/36/1 34/37/1 73/3/1
f 34/37/1 35/38/1 73/3/1
f 35/38/1 36/4/1 73/3/1
f 36/4/1 1/1/1 73/3/1
f 72/4/2 71/38/2 74/5/2
f 71/38/2 70/37/2 74/5/2
f 70/37/2 69/36/2 74/5/2
f 69/36/2 68/35/2 74/5/2
f 68/35/2 67/34/2 74/5/2
f 67/34/2 66/33/2 74/5/2
f 66/33/2 65/32/2 74/5/2
f 65/32/2 64/39/2 74/5/2
f 64/39/2 63/30/2 74/5/2
f 63/30/2 62/29/2 74/5/2
f 62/29/2 61/28/2 74/5/2
f 61/28/2 60/27/2 74/5/2
f 60/27/2 59/26/2 74/5/2
f 59/26/2 58/25/2 74/5/2
f 58/25/2 57/24/2 74/5/2
f 57/24/2 55/23/2 74/5/2
f 55/22/2 54/21/2 74/5/2
f 54/21/2 53/20/2 74/5/2
f 53/20/2 52/19/2 74/5/2
f 52/19/2 51/18/2 74/5/2
f 51/18/2 50/17/2 74/5/2
f 50/17/2 49/16/2 74/5/2
f 49/16/2 48/15/2 74/5/2
f 48/15/2 47/14/2 74/5/2
f 47/14/2 46/13/2 74/5/2
f 46/13/2 45/12/2 74/5/2
f 45/12/2 44/11/2 74/5/2
f 44/11/2 43/10/2 74/5/2
f 43/10/2 42/9/2 74/5/2
f 42/9/2 41/8/2 74/5/2
f 41/8/2 40/7/2 74/5/2
f 40/7/2 39/6/2 74/5/2
f 39/6/2 38/2/2 74/5/2
f 38/2/2 37/1/2 74/5/2
f 89/1/2 161/3/2 90/2/2
f 125/1/1 162/5/1 160/4/1
f 90/2/2 161/3/2 91/6/2
f 91/6/2 161/3/2 92/7/2
f 92/7/2 161/3/2 93/8/2
f 93/8/2 161/3/2 94/9/2
f 94/9/2 161/3/2 95/10/2
f 95/10/2 161/3/2 96/11/2
f 96/11/2 161/3/2 97/12/2
f 97/12/2 161/3/2 98/13/2
f 98/13/2 161/3/2 99/14/2
f 99/14/2 161/3/2 100/15/2
f 100/15/2 161/3/2 101/16/2
f 101/16/2 161/3/2 102/17/2
f 102/17/2 161/3/2 103/18/2
f 103/18/2 161/3/2 104/19/2
f 104/19/2 161/3/2 105/20/2
f 105/20/2 161/3/2 106/21/2
f 106/22/2 161/3/2 108/23/2
f 108/23/2 161/3/2 109/24/2
f 109/24/2 161/3/2 110/25/2
f 110/25/2 161/3/2 111/26/2
f 111/26/2 161/3/2 112/27/2
f 112/27/2 161/3/2 113/28/2
f 113/28/2 161/3/2 114/29/2
f 114/29/2 161/3/2 115/30/2
f 115/30/2 161/3/2 116/31/2
f 116/31/2 161/3/2 117/32/2
f 117/32/2 161/3/2 118/33/2
f 118/33/2 161/3/2 119/34/2
f 119/34/2 161/3/2 120/35/2
f 120/35/2 161/3/2 121/36/2
f 121/36/2 161/3/2 122/37/2
f 122/37/2 161/3/2 123/38/2
f 123/38/2 161/3/2 124/4/2
f 124/4/2 161/3/2 89/1/2
f 160/4/1 162/5/1 159/38/1
f 159/38/1 162/5/1 158/37/1
f 158/37/1 162/5/1 157/36/1
f 157/36/1 162/5/1 156/35/1
f 156/35/1 162/5/1 155/34/1
f 155/34/1 162/5/1 154/33/1
f 154/33/1 162/5/1 153/32/1
f 153/32/1 162/5/1 152/39/1
f 152/39/1 162/5/1 151/30/1
f 151/30/1 162/5/1 150/29/1
f 150/29/1 162/5/1 149/28/1
f 149/28/1 162/5/1 148/27/1
f 148/27/1 162/5/1 147/26/1
f 147/26/1 162/5/1 146/25/1
f 146/25/1 162/5/1 145/24/1
f 145/24/1 162/5/1 143/23/1
f 143/22/1 162/5/1 142/21/1
f 142/21/1 162/5/1 141/20/1
f 141/20/1 162/5/1 140/19/1
f 140/19/1 162/5/1 139/18/1
f 139/18/1 162/5/1 138/17/1
f 138/17/1 162/5/1 137/16/1
f 137/16/1 162/5/1 136/15/1
f 136/15/1 162/5/1 135/14/1
f 135/14/1 162/5/1 134/13/1
f 134/13/1 162/5/1 133/12/1
f 133/12/1 162/5/1 132/11/1
f 132/11/1 162/5/1 131/10/1
f 131/10/1 162/5/1 130/9/1
f 130/9/1 162/5/1 129/8/1
f 129/8/1 162/5/1 128/7/1
f 128/7/1 162/5/1 127/6/1
f 127/6/1 162/5/1 126/2/1
f 126/2/1 162/5/1 125/1/1
f 13/16/3 12/15/3 48/15/3 49/16/3
f 2/2/4 1/1/4 37/1/4 38/2/4
f 159/38/5 123/38/5 124/4/5 160/4/5
f 158/37/6 122/37/6 123/38/6 159/38/6
f 87/23/7 85/21/7 86/21/7 88/22/7
f 128/7/8 92/7/8 93/8/8 129/8/8
f 78/23/9 55/23/9 20/23/9 77/23/9
f 160/4/10 124/4/10 89/1/10 125/1/10
f 150/29/11 114/29/11 115/30/11 151/30/11
f 31/34/12 30/33/12 66/33/12 67/34/12
f 155/34/13 119/34/13 120/35/13 156/35/13
f 139/18/14 103/18/14 104/19/14 140/19/14
f 32/35/13 31/34/13 67/34/13 68/35/13
f 163/22/15 165/23/15 164/23/15 107/22/15
f 33/36/16 32/35/16 68/35/16 69/36/16
f 146/25/17 110/25/17 111/26/17 147/26/17
f 18/21/18 17/20/18 53/20/18 54/21/18
f 87/23/19 83/23/19 81/22/19 85/22/19
f 47/14/20 11/14/20 10/13/20 46/13/20
f 28/31/21 64/39/21 65/32/21 29/32/21
f 16/19/14 15/18/14 51/18/14 52/19/14
f 145/24/22 109/24/22 110/25/22 146/25/22
f 15/18/23 14/17/23 50/17/23 51/18/23
f 3/6/24 2/2/24 38/2/24 39/6/24
f 6/9/25 5/8/25 41/8/25 42/9/25
f 34/37/26 33/36/26 69/36/26 70/37/26
f 79/21/2 54/21/2 55/22/2 78/22/2
f 17/20/27 16/19/27 52/19/27 53/20/27
f 86/21/28 82/21/28 84/22/28 88/22/28
f 35/38/6 34/37/6 70/37/6 71/38/6
f 7/10/29 6/9/29 42/9/29 43/10/29
f 12/15/30 11/14/30 47/14/30 48/15/30
f 135/14/20 134/13/20 98/13/20 99/14/20
f 36/4/5 35/38/5 71/38/5 72/4/5
f 154/33/12 118/33/12 119/34/12 155/34/12
f 77/23/1 20/23/1 18/22/1 75/22/1
f 133/12/31 97/12/31 98/13/31 134/13/31
f 147/26/32 111/26/32 112/27/32 148/27/32
f 167/21/33 163/21/33 107/21/33 144/21/33
f 21/24/34 20/23/34 55/23/34 57/24/34
f 129/8/25 93/8/25 94/9/25 130/9/25
f 22/25/22 21/24/22 57/24/22 58/25/22
f 9/12/35 8/11/35 44/11/35 45/12/35
f 131/10/36 95/10/36 96/11/36 132/11/36
f 171/23/9 164/23/9 168/23/9 172/23/9
f 144/21/33 107/21/33 169/21/33 170/21/33
f 5/8/8 4/7/8 40/7/8 41/8/8
f 171/23/9 172/23/9 176/23/9 175/23/9
f 83/23/37 76/23/37 19/22/37 81/22/37
f 81/21/33 19/21/33 56/21/33 82/21/33
f 136/15/3 100/15/3 101/16/3 137/16/3
f 125/1/4 89/1/4 90/2/4 126/2/4
f 27/30/11 26/29/11 62/29/11 63/30/11
f 1/1/10 36/4/10 72/4/10 37/1/10
f 153/32/38 117/32/38 118/33/38 154/33/38
f 135/14/30 99/14/30 100/15/30 136/15/30
f 10/13/31 9/12/31 45/12/31 46/13/31
f 126/2/24 90/2/24 91/6/24 127/6/24
f 28/40/39 27/30/39 63/30/39 64/39/39
f 157/36/26 121/36/26 122/37/26 158/37/26
f 107/22/40 164/23/40 171/23/40 169/22/40
f 24/27/32 23/26/32 59/26/32 60/27/32
f 56/21/41 79/21/41 78/22/41 80/22/41
f 14/17/42 13/16/42 49/16/42 50/17/42
f 30/33/38 29/32/38 65/32/38 66/33/38
f 140/19/27 104/19/27 105/20/27 141/20/27
f 4/7/43 3/6/43 39/6/43 40/7/43
f 138/17/23 102/17/23 103/18/23 139/18/23
f 86/21/33 85/21/33 81/21/33 82/21/33
f 25/28/44 24/27/44 60/27/44 61/28/44
f 149/28/45 113/28/45 114/29/45 150/29/45
f 26/29/45 25/28/45 61/28/45 62/29/45
f 23/26/17 22/25/17 58/25/17 59/26/17
f 141/20/18 105/20/18 106/21/18 142/21/18
f 132/11/35 96/11/35 97/12/35 133/12/35
f 137/16/42 101/16/42 102/17/42 138/17/42
f 142/21/33 106/21/33 163/21/33 167/21/33
f 82/21/46 56/21/46 80/22/46 84/22/46
f 127/6/43 91/6/43 92/7/43 128/7/43
f 76/23/47 77/23/47 75/22/47 19/22/47
f 106/22/2 108/23/2 165/23/2 163/22/2
f 143/22/1 142/21/1 167/21/1 166/22/1
f 151/30/39 115/30/39 116/40/39 152/39/39
f 75/21/33 18/21/33 54/21/33 79/21/33
f 168/22/48 144/21/48 170/21/48 172/22/48
f 108/23/9 143/23/9 166/23/9 165/23/9
f 153/32/21 152/39/21 116/31/21 117/32/21
f 174/21/49 173/21/49 175/23/49 176/22/49
f 19/21/33 75/21/33 79/21/33 56/21/33
f 148/27/44 112/27/44 113/28/44 149/28/44
f 156/35/16 120/35/16 121/36/16 157/36/16
f 8/11/36 7/10/36 43/10/36 44/11/36
f 164/23/9 165/23/9 166/23/9 168/23/9
f 130/9/29 94/9/29 95/10/29 131/10/29
f 169/22/50 171/23/50 175/23/50 173/22/50
f 76/23/9 80/23/9 78/23/9 77/23/9
f 83/23/9 84/23/9 80/23/9 76/23/9
f 143/23/34 108/23/34 109/24/34 145/24/34
f 88/23/9 84/23/9 83/23/9 87/23/9
f 166/22/51 167/21/51 144/21/51 168/22/51
f 174/21/33 170/21/33 169/21/33 173/21/33
f 172/22/52 170/21/52 174/21/52 176/22/52
