# Blender 5.0.1
# www.blender.org
o StairsSlotPlatformAttachment
v 0.934680 1.400000 -0.202765
v -0.934680 1.400000 -0.202765
v 1.000000 1.510033 -0.092648
v -1.000000 1.510033 -0.092648
v 0.000000 1.400000 -1.250000
v -0.095507 1.400000 -1.241644
v -0.188111 1.400000 -1.216831
v -0.275000 1.400000 -1.176314
v -0.353533 1.400000 -1.121324
v -0.421324 1.400000 -1.053533
v -0.476314 1.400000 -0.975000
v 0.476314 1.400000 -0.975000
v 0.421324 1.400000 -1.053533
v 0.353533 1.400000 -1.121324
v 0.275000 1.400000 -1.176314
v 0.188111 1.400000 -1.216831
v 0.095507 1.400000 -1.241644
v -0.095507 1.510000 -1.241644
v 0.000000 1.510000 -1.250000
v -0.188111 1.510000 -1.216831
v -0.275000 1.510000 -1.176314
v -0.353533 1.510000 -1.121324
v -0.421324 1.510000 -1.053533
v -0.476314 1.510000 -0.975000
v 0.476314 1.510000 -0.975000
v 0.421324 1.510000 -1.053533
v 0.353533 1.510000 -1.121324
v 0.275000 1.510000 -1.176314
v 0.188111 1.510000 -1.216831
v 0.095507 1.510000 -1.241644
v -0.000000 1.399999 -0.573931
v -0.000000 1.510019 -0.501297
v 0.934680 -1.400000 -0.202765
v -0.934680 -1.400000 -0.202765
v 1.000000 -1.510033 -0.092648
v -1.000000 -1.510033 -0.092648
v 0.000000 -1.400000 -1.250000
v -0.095507 -1.400000 -1.241644
v -0.188111 -1.400000 -1.216831
v -0.275000 -1.400000 -1.176314
v -0.353533 -1.400000 -1.121324
v -0.421324 -1.400000 -1.053533
v -0.476314 -1.400000 -0.975000
v 0.476314 -1.400000 -0.975000
v 0.421324 -1.400000 -1.053533
v 0.353533 -1.400000 -1.121324
v 0.275000 -1.400000 -1.176314
v 0.188111 -1.400000 -1.216831
v 0.095507 -1.400000 -1.241644
v -0.095507 -1.510000 -1.241644
v 0.000000 -1.510000 -1.250000
v -0.188111 -1.510000 -1.216831
v -0.275000 -1.510000 -1.176314
v -0.353533 -1.510000 -1.121324
v -0.421324 -1.510000 -1.053533
v -0.476314 -1.510000 -0.975000
v 0.476314 -1.510000 -0.975000
v 0.421324 -1.510000 -1.053533
v 0.353533 -1.510000 -1.121324
v 0.275000 -1.510000 -1.176314
v 0.188111 -1.510000 -1.216831
v 0.095507 -1.510000 -1.241644
v -0.000000 -1.399999 -0.573931
v -0.000000 -1.510019 -0.501297
vn -0.0000 -1.0000 -0.0000
vn -0.0000 1.0000 -0.0000
vn -0.5736 -0.0000 -0.8192
vn 0.5736 -0.0000 -0.8192
vn 0.7071 -0.0000 -0.7071
vn -0.0000 0.7074 0.7068
vn -0.8599 -0.0001 -0.5104
vn -0.8192 -0.0000 -0.5736
vn -0.4226 -0.0000 -0.9063
vn 0.0872 -0.0000 -0.9962
vn 0.2588 -0.0000 -0.9659
vn -0.2588 -0.0000 -0.9659
vn 0.8192 -0.0000 -0.5736
vn -0.0872 -0.0000 -0.9962
vn 0.4226 -0.0000 -0.9063
vn 0.8599 -0.0002 -0.5104
vn -0.7071 -0.0000 -0.7071
vn 0.8599 0.0002 -0.5104
vn -0.0000 -0.7074 0.7068
vn -0.8599 0.0001 -0.5104
vt 0.000000 0.000000
s 0
f 56/1/1 64/1/1 36/1/1
f 24/1/2 4/1/2 32/1/2
f 12/1/1 1/1/1 31/1/1
f 1/1/1 2/1/1 31/1/1
f 2/1/1 11/1/1 31/1/1
f 11/1/1 10/1/1 31/1/1
f 10/1/1 9/1/1 31/1/1
f 9/1/1 8/1/1 31/1/1
f 8/1/1 7/1/1 31/1/1
f 7/1/1 6/1/1 31/1/1
f 6/1/1 5/1/1 31/1/1
f 5/1/1 17/1/1 31/1/1
f 17/1/1 16/1/1 31/1/1
f 16/1/1 15/1/1 31/1/1
f 15/1/1 14/1/1 31/1/1
f 14/1/1 13/1/1 31/1/1
f 13/1/1 12/1/1 31/1/1
f 4/1/2 3/1/2 32/1/2
f 3/1/2 25/1/2 32/1/2
f 25/1/2 26/1/2 32/1/2
f 26/1/2 27/1/2 32/1/2
f 27/1/2 28/1/2 32/1/2
f 28/1/2 29/1/2 32/1/2
f 29/1/2 30/1/2 32/1/2
f 30/1/2 19/1/2 32/1/2
f 19/1/2 18/1/2 32/1/2
f 18/1/2 20/1/2 32/1/2
f 20/1/2 21/1/2 32/1/2
f 21/1/2 22/1/2 32/1/2
f 22/1/2 23/1/2 32/1/2
f 23/1/2 24/1/2 32/1/2
f 44/1/2 63/1/2 33/1/2
f 33/1/2 63/1/2 34/1/2
f 34/1/2 63/1/2 43/1/2
f 43/1/2 63/1/2 42/1/2
f 42/1/2 63/1/2 41/1/2
f 41/1/2 63/1/2 40/1/2
f 40/1/2 63/1/2 39/1/2
f 39/1/2 63/1/2 38/1/2
f 38/1/2 63/1/2 37/1/2
f 37/1/2 63/1/2 49/1/2
f 49/1/2 63/1/2 48/1/2
f 48/1/2 63/1/2 47/1/2
f 47/1/2 63/1/2 46/1/2
f 46/1/2 63/1/2 45/1/2
f 45/1/2 63/1/2 44/1/2
f 36/1/1 64/1/1 35/1/1
f 35/1/1 64/1/1 57/1/1
f 57/1/1 64/1/1 58/1/1
f 58/1/1 64/1/1 59/1/1
f 59/1/1 64/1/1 60/1/1
f 60/1/1 64/1/1 61/1/1
f 61/1/1 64/1/1 62/1/1
f 62/1/1 64/1/1 51/1/1
f 51/1/1 64/1/1 50/1/1
f 50/1/1 64/1/1 52/1/1
f 52/1/1 64/1/1 53/1/1
f 53/1/1 64/1/1 54/1/1
f 54/1/1 64/1/1 55/1/1
f 55/1/1 64/1/1 56/1/1
f 54/1/3 41/1/3 40/1/3 53/1/3
f 60/1/4 47/1/4 46/1/4 59/1/4
f 59/1/5 46/1/5 45/1/5 58/1/5
f 35/1/6 33/1/6 34/1/6 36/1/6
f 56/1/7 36/1/7 34/1/7 43/1/7
f 56/1/8 43/1/8 42/1/8 55/1/8
f 53/1/9 40/1/9 39/1/9 52/1/9
f 51/1/10 37/1/10 49/1/10 62/1/10
f 21/1/9 20/1/9 7/1/9 8/1/9
f 19/1/10 30/1/10 17/1/10 5/1/10
f 30/1/11 29/1/11 16/1/11 17/1/11
f 27/1/5 26/1/5 13/1/5 14/1/5
f 20/1/12 18/1/12 6/1/12 7/1/12
f 22/1/3 21/1/3 8/1/3 9/1/3
f 58/1/13 45/1/13 44/1/13 57/1/13
f 18/1/14 19/1/14 5/1/14 6/1/14
f 28/1/4 27/1/4 14/1/4 15/1/4
f 24/1/8 23/1/8 10/1/8 11/1/8
f 29/1/15 28/1/15 15/1/15 16/1/15
f 52/1/12 39/1/12 38/1/12 50/1/12
f 26/1/13 25/1/13 12/1/13 13/1/13
f 62/1/11 49/1/11 48/1/11 61/1/11
f 33/1/16 35/1/16 57/1/16 44/1/16
f 50/1/14 38/1/14 37/1/14 51/1/14
f 55/1/17 42/1/17 41/1/17 54/1/17
f 25/1/18 3/1/18 1/1/18 12/1/18
f 3/1/19 4/1/19 2/1/19 1/1/19
f 24/1/20 11/1/20 2/1/20 4/1/20
f 23/1/17 22/1/17 9/1/17 10/1/17
f 61/1/15 48/1/15 47/1/15 60/1/15
